<svg t="1600089695261" class="icon" viewBox="0 0 1024 1024" version="1.1" xmlns="http://www.w3.org/2000/svg" p-id="8544" width="200" height="200"><path d="M512 512m-512 0a512 512 0 1 0 1024 0 512 512 0 1 0-1024 0Z" fill="#0352A3" p-id="8545"></path><path d="M512 167.68a355.68 355.68 0 0 0-141.12 28.8 356.8 356.8 0 0 0-193.6 193.44 361.76 361.76 0 0 0 0 284 361.6 361.6 0 0 0 81.12 117.6h506.56a366.56 366.56 0 0 0 81.12-117.6 354.4 354.4 0 0 0 29.12-142.88 358.4 358.4 0 0 0-28.64-141.12 356.32 356.32 0 0 0-193.6-193.44 354.56 354.56 0 0 0-140.96-28.8z m231.04 571.84H280.8a300 300 0 0 1-80-208 305.44 305.44 0 0 1 41.92-156.16 311.52 311.52 0 0 1 539.36 0 305.28 305.28 0 0 1 41.76 156.16 299.84 299.84 0 0 1-80 208zM292.96 516.48l-65.76-12.16 6.56-36.48 65.6 12.16-6.4 36.48z m432-36.48l65.6-12.16 6.56 36.48-65.76 12.16z m-368-104.64l-43.04-51.2 28.48-23.36L384 352z m311.52 0L640 352l43.04-51.04 28.32 23.36-42.88 51.2z m-174.4-129.76h37.28v66.4h-38.08z m20.16 287.04l-112-124.8L464 560a54.24 54.24 0 0 0 0.96 57.6 55.84 55.84 0 0 0 76.96 17.44 55.52 55.52 0 0 0 24.64-34.88 52.32 52.32 0 0 0-6.56-41.6 53.92 53.92 0 0 0-46.24-25.92z m0 0" p-id="8546"></path></svg>