<svg t="1600014180313" class="icon" viewBox="0 0 1024 1024" version="1.1" xmlns="http://www.w3.org/2000/svg" p-id="4294" width="200" height="200"><path d="M366.884688 613.283728h-145.934593V463.867187h145.934593v149.416541z m220.489249-149.416541h-145.934593v149.416541h145.934593V463.867187z m220.642865 0h-146.037004v149.416541h146.037004V463.867187zM366.884688 682.052205h-145.934593v149.416542h145.934593V682.052205z m220.489249 0h-145.934593v149.416542h145.934593V682.052205z m220.642865 0h-146.037004v149.416542h146.037004V682.052205z m54.328633-519.834383c0 25.50015-20.123612 46.084608-45.009301 46.084608a45.572557 45.572557 0 0 1-45.009301-46.084608V46.187019c0-25.39774 20.123612-46.033403 45.009301-46.033404s45.009301 20.635664 45.009301 46.033404v116.030803zM253.977398 45.982198C253.977398 20.584458 233.853785 0 208.968097 0s-45.009301 20.584458-45.009301 45.982198v116.030803c0 25.50015 20.123612 46.084608 45.009301 46.084609s45.009301-20.584458 45.009301-46.084609V45.982198z m662.747875 67.283529v47.313531c0 56.120812-44.59966 101.744574-99.389139 101.744574s-99.440344-45.623762-99.440344-101.744574v-47.313531H308.459646v47.0063c0 56.069607-44.59966 101.846985-99.491549 101.846985-54.789479 0-99.389139-45.777378-99.389139-101.846985v-47.0063H1.536154v910.683068h1020.927692V113.265727h-105.738573z m6.60546 809.348134H100.669267V358.231023h822.661466v564.382838z m0 0" p-id="4295"></path></svg>