<svg t="1600068223980" class="icon" viewBox="0 0 1024 1024" version="1.1" xmlns="http://www.w3.org/2000/svg" p-id="2720" width="200" height="200"><path d="M288.256 408.704c-17.058909 25.693091-29.405091 46.138182-36.852364 60.741818l-1.105454 2.164364-1.245091 2.082909C219.496727 522.891636 203.636364 579.467636 203.636364 638.626909 203.636364 813.195636 341.992727 954.181818 512 954.181818S820.363636 813.195636 820.363636 638.626909c0-60.392727-16.535273-118.097455-47.255272-167.970909l-1.221819-2.048a976.523636 976.523636 0 0 0-44.032-69.701818c-16.139636-23.458909-88.901818-119.342545-216.005818-284.637091-132.200727 171.031273-207.778909 270.603636-223.592727 294.434909z m-58.170182-38.609455C249.460364 340.898909 343.424 217.541818 512 0c162.792727 211.281455 253.917091 331.054545 273.373091 359.330909a1045.829818 1045.829818 0 0 1 47.173818 74.705455C869.061818 493.323636 890.181818 563.456 890.181818 638.626909 890.181818 851.456 720.872727 1024 512 1024S133.818182 851.456 133.818182 638.626909c0-73.6 20.247273-142.382545 55.377454-200.878545 8.843636-17.361455 22.481455-39.912727 40.890182-67.653819z m86.760727 339.153455a34.909091 34.909091 0 0 1-40.238545-57.041455C320.500364 621.230545 362.007273 605.090909 401.454545 605.090909c39.261091 0 68.177455 10.042182 101.585455 31.453091 3.595636 2.292364 7.272727 4.736 11.613091 7.68a1399.214545 1399.214545 0 0 1 11.252364 7.703273c1.954909 1.338182 3.909818 2.676364 6.423272 4.421818l5.992728 4.177454c4.573091 3.165091 7.796364 5.352727 10.903272 7.389091C570.077091 681.518545 585.029818 686.545455 610.909091 686.545455c25.576727 0 53.376-10.821818 83.712-33.687273a34.909091 34.909091 0 1 1 42.030545 55.738182C694.993455 740.014545 652.974545 756.363636 610.909091 756.363636c-40.378182 0-68.258909-9.378909-99.84-29.975272-3.746909-2.443636-7.458909-4.968727-12.520727-8.482909l-6.050909-4.212364a1053.765818 1053.765818 0 0 0-6.039273-4.165818c-15.941818-10.903273-15.813818-10.821818-21.073455-14.196364C442.402909 680.610909 425.984 674.909091 401.454545 674.909091c-23.214545 0-51.525818 11.008-84.596363 34.338909z" p-id="2721"></path></svg>