<svg t="1600068280957" class="icon" viewBox="0 0 1024 1024" version="1.1" xmlns="http://www.w3.org/2000/svg" p-id="3478" width="200" height="200"><path d="M699.392 719.872a91.648 91.648 0 0 0-66.048-27.136H116.736v93.696h424.448a88.576 88.576 0 0 0 7.68 36.352 94.208 94.208 0 0 0 51.2 51.2 91.648 91.648 0 0 0 72.704 0 102.4 102.4 0 0 0 29.696-19.968 88.064 88.064 0 0 0 19.968-29.184 93.184 93.184 0 0 0-19.968-102.4zM527.872 505.344h9.216a91.136 91.136 0 0 0 36.864-7.68 102.4 102.4 0 0 0 30.208-19.968 92.16 92.16 0 0 0 20.48-30.208 96.256 96.256 0 0 0 0-74.24 97.792 97.792 0 0 0-51.2-51.2 91.136 91.136 0 0 0-36.864-7.68 92.672 92.672 0 0 0-37.376 7.68 97.792 97.792 0 0 0-51.2 51.2 92.672 92.672 0 0 0-6.656 36.352H163.84v94.208h358.4z" fill="#31CAFF" p-id="3479"></path><path d="M948.736 481.792a124.416 124.416 0 0 0-27.136-37.376 116.736 116.736 0 0 0-36.864-25.6 111.616 111.616 0 0 0-43.008-9.216 113.152 113.152 0 0 0-46.08 9.216 116.736 116.736 0 0 0-36.864 25.6 124.928 124.928 0 0 0-25.088 37.376 111.616 111.616 0 0 0-9.216 45.056 122.368 122.368 0 0 0 0 24.064H116.736v93.696h724.992a111.616 111.616 0 0 0 45.056-9.216 118.272 118.272 0 0 0 61.952-61.952 113.152 113.152 0 0 0 9.216-46.08 111.616 111.616 0 0 0-9.216-45.568z" p-id="3480"></path></svg>