<svg t="1600014078391" class="icon" viewBox="0 0 1024 1024" version="1.1" xmlns="http://www.w3.org/2000/svg" p-id="3530" width="200" height="200"><path d="M512 0C294.208 0 117.035 177.152 117.056 394.923c0 80.896 24.299 158.677 69.781 224.149 2.283 3.925 4.587 7.723 7.296 11.413l288.278 379.99c7.829 8.725 18.346 13.525 29.61 13.525 11.115 0 21.696-4.843 30.848-15.104l286.955-378.475c2.837-3.754 5.248-7.872 6.57-10.282 46.145-66.39 70.571-144.256 70.571-225.174C906.965 177.152 729.792 0 512 0z m0 536.17c-77.781 0-141.077-63.295-141.077-141.098 0-77.781 63.296-141.056 141.077-141.056s141.077 63.296 141.077 141.056c0 77.803-63.296 141.099-141.077 141.099z" fill="" p-id="3531"></path></svg>